<svg width="22" height="19" viewBox="0 0 22 19" fill="none" xmlns="http://www.w3.org/2000/svg">
<path d="M20.1909 0.76817L0.860633 16.9882C0.504943 17.2866 0.458546 17.8175 0.756961 18.1731C1.05542 18.5288 1.5863 18.5752 1.94194 18.2768L21.2722 2.05682C21.6279 1.75836 21.6743 1.22748 21.3758 0.871842C21.0774 0.516107 20.5466 0.46971 20.1909 0.76817Z" fill="black"/>
<path d="M0.645103 1.97966L19.9782 18.202C20.3339 18.5005 20.8645 18.4545 21.1625 18.0993C21.4606 17.7441 21.4138 17.2135 21.0581 16.9151L1.72499 0.69271C1.3693 0.394251 0.838692 0.440232 0.540625 0.795455C0.242557 1.15068 0.289413 1.68121 0.645103 1.97966Z" fill="black"/>
</svg>
